<svg xmlns="http://www.w3.org/2000/svg" width="12" height="15.273" viewBox="0 0 12 15.273"><defs><style>.a{fill:#7a869a;}</style></defs><g transform="translate(-51.2)"><g transform="translate(51.2)"><path class="a" d="M62.655,5.455h-.545V4.909a4.909,4.909,0,1,0-9.818,0v.545h-.545A.545.545,0,0,0,51.2,6v8.727a.545.545,0,0,0,.545.545H62.655a.545.545,0,0,0,.545-.545V6A.545.545,0,0,0,62.655,5.455Zm-9.273-.545a3.818,3.818,0,1,1,7.636,0v.545H53.382Zm8.727,9.273H52.291V6.545h9.818Z" transform="translate(-51.2)"/></g><g transform="translate(55.564 8.182)"><g transform="translate(0)"><path class="a" d="M190.934,257.09a1.635,1.635,0,1,0-2.088,2.082v1.191a.545.545,0,1,0,1.091,0v-1.191A1.633,1.633,0,0,0,190.934,257.09Zm-1.543,1.092a.545.545,0,1,1,.545-.545A.545.545,0,0,1,189.392,258.182Z" transform="translate(-187.756 -256)"/></g></g></g></svg>